<svg width="339" height="69" viewBox="0 0 339 69" fill="none" xmlns="http://www.w3.org/2000/svg">
<path d="M8.22544e-05 67.2V-5.34058e-05H10.0801V31.1039L42.6241 -5.34058e-05H55.3921L20.4481 32.5439L56.4481 67.2H42.6241L10.0801 35.3279V67.2H8.22544e-05ZM80.1113 68.16C75.3753 68.16 71.0553 67.04 67.1513 64.8C63.3113 62.56 60.2713 59.52 58.0313 55.68C55.7913 51.84 54.6713 47.552 54.6713 42.816C54.6713 38.08 55.7913 33.792 58.0313 29.952C60.2713 26.1119 63.3113 23.0719 67.1513 20.832C71.0553 18.5279 75.3753 17.3759 80.1113 17.3759C84.9113 17.3759 89.2313 18.5279 93.0713 20.832C96.9113 23.0719 99.9513 26.1119 102.191 29.952C104.431 33.792 105.551 38.08 105.551 42.816C105.551 47.552 104.431 51.84 102.191 55.68C99.9513 59.52 96.9113 62.56 93.0713 64.8C89.2313 67.04 84.9113 68.16 80.1113 68.16ZM80.1113 59.712C83.1193 59.712 85.8393 58.976 88.2713 57.504C90.7033 55.968 92.6233 53.92 94.0313 51.36C95.4393 48.8 96.1433 45.9199 96.1433 42.7199C96.1433 39.5839 95.4073 36.7679 93.9353 34.2719C92.5273 31.7119 90.6073 29.6639 88.1753 28.128C85.8073 26.5919 83.1193 25.8239 80.1113 25.8239C77.1033 25.8239 74.3833 26.5919 71.9513 28.128C69.5833 29.6639 67.6633 31.7119 66.1913 34.2719C64.7833 36.7679 64.0793 39.5839 64.0793 42.7199C64.0793 45.9199 64.7833 48.8 66.1913 51.36C67.5993 53.92 69.5193 55.968 71.9513 57.504C74.3833 58.976 77.1033 59.712 80.1113 59.712ZM131.429 68.16C127.205 68.16 123.237 67.552 119.525 66.336C115.877 65.056 112.709 63.264 110.021 60.96L115.301 54.624C117.797 56.608 120.357 58.144 122.981 59.232C125.669 60.256 128.389 60.768 131.141 60.768C134.597 60.768 137.413 60.096 139.589 58.752C141.765 57.408 142.853 55.648 142.853 53.472C142.853 51.68 142.213 50.272 140.933 49.248C139.653 48.224 137.669 47.52 134.981 47.136L126.149 45.8879C121.285 45.1839 117.637 43.6799 115.205 41.3759C112.773 39.0719 111.557 36 111.557 32.16C111.557 29.216 112.357 26.6559 113.957 24.4799C115.557 22.2399 117.797 20.5119 120.677 19.2959C123.557 18.0159 126.917 17.3759 130.757 17.3759C134.277 17.3759 137.669 17.8879 140.933 18.9119C144.197 19.9359 147.333 21.5359 150.341 23.712L145.445 30.0479C142.757 28.2559 140.133 26.9439 137.573 26.1119C135.077 25.2799 132.549 24.8639 129.989 24.8639C127.045 24.8639 124.677 25.5039 122.885 26.7839C121.093 27.9999 120.197 29.5999 120.197 31.5839C120.197 33.3759 120.805 34.7839 122.021 35.8079C123.301 36.768 125.381 37.4399 128.261 37.8239L137.093 39.0719C141.957 39.776 145.637 41.28 148.133 43.584C150.629 45.824 151.877 48.864 151.877 52.704C151.877 55.648 150.981 58.304 149.189 60.672C147.397 62.976 144.965 64.8 141.893 66.144C138.821 67.488 135.333 68.16 131.429 68.16ZM159.254 67.2V18.336H168.854V23.04C172.502 19.2639 177.078 17.3759 182.582 17.3759C185.91 17.3759 188.854 18.1119 191.414 19.5839C194.038 21.0559 196.118 23.0399 197.654 25.5359C199.702 22.8479 202.102 20.832 204.854 19.488C207.606 18.0799 210.71 17.3759 214.166 17.3759C217.814 17.3759 220.982 18.1759 223.67 19.7759C226.422 21.3759 228.566 23.6159 230.102 26.4959C231.702 29.3759 232.502 32.7039 232.502 36.4799V67.2H222.902V38.112C222.902 34.272 221.878 31.264 219.83 29.0879C217.846 26.8479 215.126 25.728 211.67 25.728C209.302 25.728 207.158 26.2719 205.238 27.3599C203.318 28.4479 201.654 30.1119 200.246 32.352C200.374 32.992 200.47 33.6639 200.534 34.368C200.598 35.0719 200.63 35.7759 200.63 36.4799V67.2H191.126V38.112C191.126 34.272 190.102 31.264 188.054 29.0879C186.07 26.8479 183.35 25.728 179.894 25.728C177.59 25.728 175.51 26.24 173.654 27.264C171.798 28.2239 170.198 29.6959 168.854 31.68V67.2H159.254ZM266.768 68.16C262.032 68.16 257.712 67.04 253.808 64.8C249.968 62.56 246.928 59.52 244.688 55.68C242.448 51.84 241.328 47.552 241.328 42.816C241.328 38.08 242.448 33.792 244.688 29.952C246.928 26.1119 249.968 23.0719 253.808 20.832C257.712 18.5279 262.032 17.3759 266.768 17.3759C271.568 17.3759 275.888 18.5279 279.728 20.832C283.568 23.0719 286.608 26.1119 288.848 29.952C291.088 33.792 292.208 38.08 292.208 42.816C292.208 47.552 291.088 51.84 288.848 55.68C286.608 59.52 283.568 62.56 279.728 64.8C275.888 67.04 271.568 68.16 266.768 68.16ZM266.768 59.712C269.776 59.712 272.496 58.976 274.928 57.504C277.36 55.968 279.28 53.92 280.688 51.36C282.096 48.8 282.8 45.9199 282.8 42.7199C282.8 39.5839 282.064 36.7679 280.592 34.2719C279.184 31.7119 277.264 29.6639 274.832 28.128C272.464 26.5919 269.776 25.8239 266.768 25.8239C263.76 25.8239 261.04 26.5919 258.608 28.128C256.24 29.6639 254.32 31.7119 252.848 34.2719C251.44 36.7679 250.736 39.5839 250.736 42.7199C250.736 45.9199 251.44 48.8 252.848 51.36C254.256 53.92 256.176 55.968 258.608 57.504C261.04 58.976 263.76 59.712 266.768 59.712ZM318.086 68.16C313.862 68.16 309.894 67.552 306.182 66.336C302.534 65.056 299.366 63.264 296.678 60.96L301.958 54.624C304.454 56.608 307.014 58.144 309.638 59.232C312.326 60.256 315.046 60.768 317.798 60.768C321.254 60.768 324.07 60.096 326.246 58.752C328.422 57.408 329.51 55.648 329.51 53.472C329.51 51.68 328.87 50.272 327.59 49.248C326.31 48.224 324.326 47.52 321.638 47.136L312.806 45.8879C307.942 45.1839 304.294 43.6799 301.862 41.3759C299.43 39.0719 298.214 36 298.214 32.16C298.214 29.216 299.014 26.6559 300.614 24.4799C302.214 22.2399 304.454 20.5119 307.334 19.2959C310.214 18.0159 313.574 17.3759 317.414 17.3759C320.934 17.3759 324.326 17.8879 327.59 18.9119C330.854 19.9359 333.99 21.5359 336.998 23.712L332.102 30.0479C329.414 28.2559 326.79 26.9439 324.23 26.1119C321.734 25.2799 319.206 24.8639 316.646 24.8639C313.702 24.8639 311.334 25.5039 309.542 26.7839C307.75 27.9999 306.854 29.5999 306.854 31.5839C306.854 33.3759 307.462 34.7839 308.678 35.8079C309.958 36.768 312.038 37.4399 314.918 37.8239L323.75 39.0719C328.614 39.776 332.294 41.28 334.79 43.584C337.286 45.824 338.534 48.864 338.534 52.704C338.534 55.648 337.638 58.304 335.846 60.672C334.054 62.976 331.622 64.8 328.55 66.144C325.478 67.488 321.99 68.16 318.086 68.16Z" fill="white"/>
</svg>
