<svg width="550" height="133" viewBox="0 0 550 133" fill="none" xmlns="http://www.w3.org/2000/svg">
<path d="M81.6304 43.2982C105.663 49.779 96.2076 69.8639 80.8422 78.1903C104.087 74.6223 121.408 45.2811 100.936 33.3861C67.5553 13.9908 26.4722 44.0913 15.4408 57.1757C-3.27985 79.3803 -5.44038 105.153 11.501 120.616C30.8988 138.321 62.1936 131.983 82.0242 124.581C49.3235 125.375 41.0498 119.824 33.9581 112.686C4.40924 82.9488 47.5986 34.1211 81.6304 43.2982Z" fill="white"/>
<path d="M78.3696 88.3487C54.3366 81.8962 63.7924 61.899 79.1578 53.6089C55.9125 57.1614 38.5923 86.3744 59.0643 98.2175C92.4447 117.528 133.528 87.559 144.559 74.5318C163.28 52.4241 165.44 26.7641 148.499 11.3684C129.101 -6.25952 97.8064 0.0515693 77.9759 7.42062C110.677 6.63073 118.95 12.1575 126.042 19.2634C155.591 48.8712 112.401 97.4857 78.3696 88.3487Z" fill="white"/>
<path d="M209.285 100.517V33.3171H219.365V64.4211L251.909 33.3171H264.677L229.733 65.8611L265.733 100.517H251.909L219.365 68.6451V100.517H209.285ZM289.396 101.477C284.66 101.477 280.34 100.357 276.436 98.1171C272.596 95.8771 269.556 92.8371 267.316 88.9971C265.076 85.1571 263.956 80.8691 263.956 76.1331C263.956 71.3971 265.076 67.1091 267.316 63.2691C269.556 59.4291 272.596 56.3891 276.436 54.1491C280.34 51.8451 284.66 50.6931 289.396 50.6931C294.196 50.6931 298.516 51.8451 302.356 54.1491C306.196 56.3891 309.236 59.4291 311.476 63.2691C313.716 67.1091 314.836 71.3971 314.836 76.1331C314.836 80.8691 313.716 85.1571 311.476 88.9971C309.236 92.8371 306.196 95.8771 302.356 98.1171C298.516 100.357 294.196 101.477 289.396 101.477ZM289.396 93.0291C292.404 93.0291 295.124 92.2931 297.556 90.8211C299.988 89.2851 301.908 87.2371 303.316 84.6771C304.724 82.1171 305.428 79.2371 305.428 76.0371C305.428 72.9011 304.692 70.0851 303.22 67.5891C301.812 65.0291 299.892 62.9811 297.46 61.4451C295.092 59.9091 292.404 59.1411 289.396 59.1411C286.388 59.1411 283.668 59.9091 281.236 61.4451C278.868 62.9811 276.948 65.0291 275.476 67.5891C274.068 70.0851 273.364 72.9011 273.364 76.0371C273.364 79.2371 274.068 82.1171 275.476 84.6771C276.884 87.2371 278.804 89.2851 281.236 90.8211C283.668 92.2931 286.388 93.0291 289.396 93.0291ZM340.714 101.477C336.49 101.477 332.522 100.869 328.81 99.6531C325.162 98.3731 321.994 96.5811 319.306 94.2771L324.586 87.9411C327.082 89.9251 329.642 91.4611 332.266 92.5491C334.954 93.5731 337.674 94.0851 340.426 94.0851C343.882 94.0851 346.698 93.4131 348.874 92.0691C351.05 90.7251 352.138 88.9651 352.138 86.7891C352.138 84.9971 351.498 83.5891 350.218 82.5651C348.938 81.5411 346.954 80.8371 344.266 80.4531L335.434 79.2051C330.57 78.5011 326.922 76.9971 324.49 74.6931C322.058 72.3891 320.842 69.3171 320.842 65.4771C320.842 62.5331 321.642 59.9731 323.242 57.7971C324.842 55.5571 327.082 53.8291 329.962 52.6131C332.842 51.3331 336.202 50.6931 340.042 50.6931C343.562 50.6931 346.954 51.2051 350.218 52.2291C353.482 53.2531 356.618 54.8531 359.626 57.0291L354.73 63.3651C352.042 61.5731 349.418 60.2611 346.858 59.4291C344.362 58.5971 341.834 58.1811 339.274 58.1811C336.33 58.1811 333.962 58.8211 332.17 60.1011C330.378 61.3171 329.482 62.9171 329.482 64.9011C329.482 66.6931 330.09 68.1011 331.306 69.1251C332.586 70.0851 334.666 70.7571 337.546 71.1411L346.378 72.3891C351.242 73.0931 354.922 74.5971 357.418 76.9011C359.914 79.1411 361.162 82.1811 361.162 86.0211C361.162 88.9651 360.266 91.6211 358.474 93.9891C356.682 96.2931 354.25 98.1171 351.178 99.4611C348.106 100.805 344.618 101.477 340.714 101.477ZM368.539 100.517V51.6531H378.139V56.3571C381.787 52.5811 386.363 50.6931 391.867 50.6931C395.195 50.6931 398.139 51.4291 400.699 52.9011C403.323 54.3731 405.403 56.3571 406.939 58.8531C408.987 56.1651 411.387 54.1491 414.139 52.8051C416.891 51.3971 419.995 50.6931 423.451 50.6931C427.099 50.6931 430.267 51.4931 432.955 53.0931C435.707 54.6931 437.851 56.9331 439.387 59.8131C440.987 62.6931 441.787 66.0211 441.787 69.7971V100.517H432.187V71.4291C432.187 67.5891 431.163 64.5811 429.115 62.4051C427.131 60.1651 424.411 59.0451 420.955 59.0451C418.587 59.0451 416.443 59.5891 414.523 60.6771C412.603 61.7651 410.939 63.4291 409.531 65.6691C409.659 66.3091 409.755 66.9811 409.819 67.6851C409.883 68.3891 409.915 69.0931 409.915 69.7971V100.517H400.411V71.4291C400.411 67.5891 399.387 64.5811 397.339 62.4051C395.355 60.1651 392.635 59.0451 389.179 59.0451C386.875 59.0451 384.795 59.5571 382.939 60.5811C381.083 61.5411 379.483 63.0131 378.139 64.9971V100.517H368.539ZM476.052 101.477C471.316 101.477 466.996 100.357 463.092 98.1171C459.252 95.8771 456.212 92.8371 453.972 88.9971C451.732 85.1571 450.612 80.8691 450.612 76.1331C450.612 71.3971 451.732 67.1091 453.972 63.2691C456.212 59.4291 459.252 56.3891 463.092 54.1491C466.996 51.8451 471.316 50.6931 476.052 50.6931C480.852 50.6931 485.172 51.8451 489.012 54.1491C492.852 56.3891 495.892 59.4291 498.132 63.2691C500.372 67.1091 501.492 71.3971 501.492 76.1331C501.492 80.8691 500.372 85.1571 498.132 88.9971C495.892 92.8371 492.852 95.8771 489.012 98.1171C485.172 100.357 480.852 101.477 476.052 101.477ZM476.052 93.0291C479.06 93.0291 481.78 92.2931 484.212 90.8211C486.644 89.2851 488.564 87.2371 489.972 84.6771C491.38 82.1171 492.084 79.2371 492.084 76.0371C492.084 72.9011 491.348 70.0851 489.876 67.5891C488.468 65.0291 486.548 62.9811 484.116 61.4451C481.748 59.9091 479.06 59.1411 476.052 59.1411C473.044 59.1411 470.324 59.9091 467.892 61.4451C465.524 62.9811 463.604 65.0291 462.132 67.5891C460.724 70.0851 460.02 72.9011 460.02 76.0371C460.02 79.2371 460.724 82.1171 462.132 84.6771C463.54 87.2371 465.46 89.2851 467.892 90.8211C470.324 92.2931 473.044 93.0291 476.052 93.0291ZM527.37 101.477C523.146 101.477 519.178 100.869 515.466 99.6531C511.818 98.3731 508.65 96.5811 505.962 94.2771L511.242 87.9411C513.738 89.9251 516.298 91.4611 518.922 92.5491C521.61 93.5731 524.33 94.0851 527.082 94.0851C530.538 94.0851 533.354 93.4131 535.53 92.0691C537.706 90.7251 538.794 88.9651 538.794 86.7891C538.794 84.9971 538.154 83.5891 536.874 82.5651C535.594 81.5411 533.61 80.8371 530.922 80.4531L522.09 79.2051C517.226 78.5011 513.578 76.9971 511.146 74.6931C508.714 72.3891 507.498 69.3171 507.498 65.4771C507.498 62.5331 508.298 59.9731 509.898 57.7971C511.498 55.5571 513.738 53.8291 516.618 52.6131C519.498 51.3331 522.858 50.6931 526.698 50.6931C530.218 50.6931 533.61 51.2051 536.874 52.2291C540.138 53.2531 543.274 54.8531 546.282 57.0291L541.386 63.3651C538.698 61.5731 536.074 60.2611 533.514 59.4291C531.018 58.5971 528.49 58.1811 525.93 58.1811C522.986 58.1811 520.618 58.8211 518.826 60.1011C517.034 61.3171 516.138 62.9171 516.138 64.9011C516.138 66.6931 516.746 68.1011 517.962 69.1251C519.242 70.0851 521.322 70.7571 524.202 71.1411L533.034 72.3891C537.898 73.0931 541.578 74.5971 544.074 76.9011C546.57 79.1411 547.818 82.1811 547.818 86.0211C547.818 88.9651 546.922 91.6211 545.13 93.9891C543.338 96.2931 540.906 98.1171 537.834 99.4611C534.762 100.805 531.274 101.477 527.37 101.477Z" fill="white"/>
</svg>
