<svg width="512" height="512" viewBox="0 0 512 512" fill="none" xmlns="http://www.w3.org/2000/svg">
<g filter="url(#filter0_n_389_161)">
<rect width="512" height="512" rx="124" fill="url(#paint0_linear_389_161)"/>
<path d="M259.056 206.444C311.478 220.581 290.853 264.391 257.337 282.553C308.041 274.77 345.82 210.77 301.166 184.824C228.355 142.518 138.743 208.174 114.68 236.715C73.8458 285.148 69.1332 341.365 106.086 375.094C148.398 413.713 216.66 399.887 259.915 383.743C188.587 385.473 170.54 373.365 155.071 357.797C90.6176 292.932 184.824 186.427 259.056 206.444Z" fill="#111111"/>
<path d="M251.944 304.71C199.522 290.636 220.147 247.017 253.663 228.934C202.959 236.683 165.18 300.404 209.834 326.237C282.645 368.358 372.257 302.988 396.32 274.572C437.154 226.35 441.867 170.379 404.914 136.797C362.602 98.3464 294.34 112.113 251.085 128.186C322.413 126.463 340.46 138.519 355.929 154.018C420.382 218.6 326.176 324.64 251.944 304.71Z" fill="#111111"/>
</g>
<defs>
<filter id="filter0_n_389_161" x="0" y="0" width="512" height="512" filterUnits="userSpaceOnUse" color-interpolation-filters="sRGB">
<feFlood flood-opacity="0" result="BackgroundImageFix"/>
<feBlend mode="normal" in="SourceGraphic" in2="BackgroundImageFix" result="shape"/>
<feTurbulence type="fractalNoise" baseFrequency="2 2" stitchTiles="stitch" numOctaves="3" result="noise" seed="1465" />
<feColorMatrix in="noise" type="luminanceToAlpha" result="alphaNoise" />
<feComponentTransfer in="alphaNoise" result="coloredNoise1">
<feFuncA type="discrete" tableValues="1 1 1 1 1 1 1 1 1 1 1 1 1 1 1 1 1 1 1 1 1 1 1 1 1 1 1 1 1 1 1 1 1 1 1 1 1 1 1 1 1 1 1 1 1 1 1 1 1 1 1 0 0 0 0 0 0 0 0 0 0 0 0 0 0 0 0 0 0 0 0 0 0 0 0 0 0 0 0 0 0 0 0 0 0 0 0 0 0 0 0 0 0 0 0 0 0 0 0 0 "/>
</feComponentTransfer>
<feComposite operator="in" in2="shape" in="coloredNoise1" result="noise1Clipped" />
<feFlood flood-color="rgba(116, 116, 116, 0.09)" result="color1Flood" />
<feComposite operator="in" in2="noise1Clipped" in="color1Flood" result="color1" />
<feMerge result="effect1_noise_389_161">
<feMergeNode in="shape" />
<feMergeNode in="color1" />
</feMerge>
</filter>
<linearGradient id="paint0_linear_389_161" x1="256" y1="0" x2="256" y2="512" gradientUnits="userSpaceOnUse">
<stop offset="0.4375" stop-color="white"/>
<stop offset="1" stop-color="#B9B9B9"/>
</linearGradient>
</defs>
</svg>
